<svg
  width="24"
  height="24"
  viewBox="0 0 24 24"
  xmlns="http://www.w3.org/2000/svg"
  xmlns:xlink="http://www.w3.org/1999/xlink">
  <rect width="24" height="24" stroke="none" fill="#000000" opacity="0" />
  <g transform="matrix(0.5 0 0 0.5 12 12)">
    <path
      style="
        stroke: none;
        stroke-width: 1;
        stroke-dasharray: none;
        stroke-linecap: butt;
        stroke-dashoffset: 0;
        stroke-linejoin: miter;
        stroke-miterlimit: 4;
        fill: rgb(0, 0, 0);
        fill-rule: nonzero;
        opacity: 1;
      "
      transform=" translate(-24, -24)"
      d="M 39.139 26.282 C 38.426 25.759 38 24.919 38 24.034 C 38 23.148999999999997 38.426 22.308999999999997 39.138 21.787 L 42.431999999999995 19.372 C 42.956999999999994 18.986 43.17399999999999 18.307 42.968999999999994 17.688 C 42.120999999999995 15.139999999999999 40.779999999999994 12.815999999999999 38.98199999999999 10.779 C 38.54899999999999 10.291 37.85099999999999 10.137 37.25399999999999 10.399 L 33.54499999999999 12.03 C 32.73699999999999 12.386 31.79599999999999 12.334999999999999 31.02899999999999 11.892 C 30.26299999999999 11.45 29.748999999999988 10.661999999999999 29.65199999999999 9.783 L 29.20599999999999 5.710999999999999 C 29.134999999999987 5.063 28.652999999999988 4.534999999999999 28.01499999999999 4.404 C 25.41799999999999 3.8729999999999998 22.68899999999999 3.864 20.04599999999999 4.394 C 19.40399999999999 4.523 18.92099999999999 5.051 18.849999999999987 5.702 L 18.407999999999987 9.748000000000001 C 18.310999999999986 10.628000000000002 17.796999999999986 11.416 17.028999999999986 11.858 C 16.262999999999984 12.3 15.324999999999985 12.353 14.513999999999985 11.996 L 10.784999999999986 10.356 C 10.192999999999985 10.094 9.492999999999986 10.246 9.059999999999986 10.733 C 7.255999999999986 12.762 5.9089999999999865 15.083 5.051999999999986 17.629 C 4.843999999999986 18.247 5.059999999999986 18.93 5.586999999999986 19.317 L 8.859999999999987 21.717 C 9.574 22.241 10 23.081 10 23.966 C 10 24.851000000000003 9.574 25.691000000000003 8.862 26.213 L 5.568 28.628 C 5.042999999999999 29.014 4.826 29.693 5.031 30.312 C 5.879 32.86 7.22 35.184 9.018 37.221000000000004 C 9.451 37.71 10.151 37.865 10.746 37.601000000000006 L 14.455 35.970000000000006 C 15.263 35.614000000000004 16.203 35.665000000000006 16.971 36.108000000000004 C 17.737000000000002 36.550000000000004 18.251 37.338 18.348 38.217000000000006 L 18.794 42.28900000000001 C 18.865000000000002 42.93700000000001 19.347 43.46500000000001 19.985 43.59600000000001 C 21.299 43.864 22.649 44 24 44 C 25.318 44 26.648 43.867 27.953 43.605 C 28.595 43.476 29.078 42.94799999999999 29.149 42.297 L 29.592000000000002 38.251 C 29.689000000000004 37.370999999999995 30.203000000000003 36.583 30.971000000000004 36.141 C 31.737000000000002 35.699999999999996 32.676 35.647999999999996 33.486000000000004 36.003 L 37.215 37.643 C 37.809000000000005 37.906 38.507000000000005 37.754 38.940000000000005 37.266 C 40.74400000000001 35.236999999999995 42.09100000000001 32.916 42.94800000000001 30.369999999999997 C 43.156000000000006 29.752 42.940000000000005 29.069 42.41300000000001 28.682 L 39.139 26.282 z M 24 31 C 20.134 31 17 27.866 17 24 C 17 20.134 20.134 17 24 17 C 27.866 17 31 20.134 31 24 C 31 27.866 27.866 31 24 31 z"
      stroke-linecap="round" />
  </g>
</svg>

